<svg xmlns="http://www.w3.org/2000/svg" height="20" viewBox="0 -960 960 960" width="20"><path d="M451.077-189.538h-208q-22.638 0-38.088-15.451-15.451-15.45-15.451-37.906v-474.21q0-22.456 15.451-37.906 15.45-15.451 38.088-15.451h208v-90.346q0-5.665 4.212-9.967 4.213-4.302 10.039-4.302t10.249 4.302q4.423 4.302 4.423 9.967v761.231q0 6.108-4.241 10.381-4.242 4.273-9.818 4.273-6.018 0-10.441-4.273-4.423-4.273-4.423-10.38v-89.962Zm-231.615-28.924h231.615v-275.307L219.462-218.462Zm329.461 28.924v-255.924l192.615 228v-499.461q0-9.231-7.692-16.923-7.692-7.692-16.923-7.692h-168v-28.924h168q22.638 0 38.088 15.451 15.451 15.45 15.451 37.906v474.21q0 22.456-15.451 37.906-15.45 15.451-38.088 15.451h-168Z"/></svg>