<svg xmlns="http://www.w3.org/2000/svg" height="24" viewBox="0 -960 960 960" width="24"><path d="M394.001-108.001H206.309q-41.033 0-69.67-28.638-28.638-28.637-28.638-69.67v-547.382q0-41.033 28.638-69.67 28.637-28.638 69.67-28.638h187.692v-37.616q0-17.769 12.616-30.384 12.615-12.615 30.384-12.615t30.384 12.615Q480-907.384 480-889.615v819.23q0 17.769-12.615 30.384-12.615 12.615-30.384 12.615T406.617-40q-12.616-12.615-12.616-30.384v-37.616ZM194-236h200.001v-237.848L194-236Zm366 127.999V-482l206 246v-517.691q0-4.616-3.846-8.463-3.847-3.846-8.463-3.846H560v-85.999h193.691q41.033 0 69.67 28.638 28.638 28.637 28.638 69.67v547.382q0 41.033-28.638 69.67-28.637 28.638-69.67 28.638H560Z"/></svg>