<svg xmlns="http://www.w3.org/2000/svg" height="20" viewBox="0 -960 960 960" width="20"><path d="M530.154-237.538H480q-121.31 0-205.886-84.483-84.576-84.482-84.576-205.659 0-121.177 84.613-205.979 84.613-84.803 205.977-84.803 60.732 0 113.417 23.116 52.686 23.115 91.686 62.115 39 39 62.115 91.585 23.116 52.585 23.116 113.515 0 103.554-71.558 192.17-71.558 88.615-148.366 143.461-3.769 3.077-8.038 2.827t-8.808-2.634q-4.538-2.385-6.385-5.979-1.846-3.594-1-9.368l3.847-29.884Zm21.061 11.076q79.554-59.884 134.939-138.561 55.384-78.676 55.384-163.169 0-107.577-76.972-184.462-76.972-76.884-184.654-76.884-107.681 0-184.566 76.972-76.884 76.972-76.884 184.654 0 107.681 76.903 184.566 76.903 76.884 184.485 76.884h71.365v40Zm-68.394-128.653q11.072 0 19.202-8.064 8.131-8.064 8.131-19.488 0-11.265-8.336-19.395-8.336-8.13-19.408-8.13-11.072 0-19.203 8.336-8.13 8.336-8.13 19.6 0 11.264 8.336 19.203 8.336 7.938 19.408 7.938Zm-80.112-280.193q6.329 2.577 12.322-1.215 5.992-3.793 11.173-10.484 6.882-11.993 21.797-18.531 14.915-6.539 33.703-6.539 28.146 0 46.452 14.245 18.305 14.245 18.305 39.622 0 25.941-14.634 42.095-14.635 16.153-29.817 30.019-20.087 19.711-27.51 32.859-7.423 13.148-7.423 23.237 0 9.772 4.462 17.194 4.462 7.421 12.467 7.421 5.829 0 10.181-3.98 4.352-3.981 3.215-10.721-1.571-9.089 4.802-20.482 6.373-11.394 21.027-26.047 18.769-18.77 35.692-37.552 16.923-18.782 16.923-53.641 0-38.758-26.615-62.321-26.616-23.563-61.923-23.563-30.924 0-53.751 11.98-22.826 11.981-28.932 21.53-7.01 9.605-8.317 20.951-1.308 11.346 6.401 13.923ZM480-508Z"/></svg>