<svg xmlns="http://www.w3.org/2000/svg" height="24" viewBox="0 -960 960 960" width="24"><path d="M166.309-150.001q-41.033 0-69.67-28.638Q68-207.276 68-248.309v-463.382q0-41.033 28.638-69.67 28.637-28.638 69.67-28.638h627.382q41.033 0 69.67 28.638 28.638 28.637 28.638 69.67v463.382q0 41.033-28.638 69.67-28.637 28.638-69.67 28.638H166.309ZM480-443.309q7 0 13.298-2t12.163-5.615l282.188-180.237q6.736-4.148 11.582-13.879 4.846-9.731 3.692-19.58-.769-19.152-18.538-28.535-17.769-9.384-35.769 1.539L480-520 211.384-691.616q-18-10.923-35.576-2.269-17.577 8.653-18.731 29.268-1.154 10.077 3.692 19.5t11.692 14.038l282.078 180.155q5.865 3.615 12.163 5.615t13.298 2Z"/></svg>