<svg xmlns="http://www.w3.org/2000/svg" height="20" viewBox="0 -960 960 960" width="20"><path d="M381.115-692.923h62.77v-62.769h-62.77v62.769Zm125.539 0v-62.769h62.769v62.769h-62.769ZM381.115-441.846v-62.769h62.77v62.769h-62.77Zm251.078-125.539v-62.769h62.769v62.769h-62.769Zm0 125.539v-62.769h62.769v62.769h-62.769Zm-125.539 0v-62.769h62.769v62.769h-62.769Zm125.539-251.077v-62.769h62.769v62.769h-62.769Zm-188.308 62.769v-62.769h62.769v62.769h-62.769ZM303.876-217.846q-5.992 0-10.222-4.287-4.231-4.287-4.231-10.348v-508.65q0-5.619 4.047-10.09t10.039-4.471q5.991 0 10.298 4.376 4.306 4.377 4.306 10.085v48.308h63.002v62.769h-62.769v62.717h62.769v62.717h-62.769v271.931q0 6.058-4.239 10.501-4.24 4.442-10.231 4.442Zm265.547-286.769v-62.77h62.77v62.77h-62.77Zm-125.538 0v-62.77h62.769v62.77h-62.769Zm-62.77-62.77v-62.769h62.77v62.769h-62.77Zm125.539 0v-62.769h62.769v62.769h-62.769Zm62.769-62.769v-62.769h62.77v62.769h-62.77Z"/></svg>