<svg xmlns="http://www.w3.org/2000/svg" height="24" viewBox="0 -960 960 960" width="24"><path d="M357.154-726.461h82.922v-82.923h-82.922v82.923Zm165.845 0v-82.923h82.923v82.923h-82.923ZM357.154-394.77v-82.923h82.922v82.923h-82.922Zm331.691-165.846v-82.923h82.923v82.923h-82.923Zm0 165.846v-82.923h82.923v82.923h-82.923Zm-165.846 0v-82.923h82.923v82.923h-82.923Zm165.846-331.691v-82.923h82.923v82.923h-82.923Zm-248.769 82.922v-82.922h82.923v82.922h-82.923ZM231.218-154.77q-17.755 0-30.371-12.625-12.615-12.625-12.615-30.374v-568.616q0-17.75 12.629-30.375 12.629-12.624 30.384-12.624 17.755 0 30.371 12.624 12.615 12.625 12.615 30.375v39.924h82.923v82.922h-82.923v82.923h82.923v82.923h-82.923v279.924q0 17.749-12.629 30.374t-30.384 12.625Zm374.704-322.923v-82.923h82.923v82.923h-82.923Zm-165.846 0v-82.923h82.923v82.923h-82.923Zm-82.922-82.923v-82.923h82.922v82.923h-82.922Zm165.845 0v-82.923h82.923v82.923h-82.923Zm82.923-82.923v-82.922h82.923v82.922h-82.923Z"/></svg>