<svg xmlns="http://www.w3.org/2000/svg" height="20" viewBox="0 -960 960 960" width="20"><path d="M493.269-187.077q-6.107 0-10.381-4.212-4.273-4.213-4.273-10.231 0-5.634 4.273-10.057Q487.162-216 493.269-216h223.039q9.231 0 16.923-7.692 7.692-7.693 7.692-16.923v-475.693q0-9.231-7.692-16.923-7.692-7.692-16.923-7.692H493.269q-6.107 0-10.381-4.213-4.273-4.212-4.273-10.231 0-5.633 4.273-10.056 4.274-4.423 10.381-4.423h223.039q22.637 0 38.088 15.45 15.45 15.451 15.45 38.088v475.693q0 22.637-15.45 38.088-15.451 15.45-38.088 15.45H493.269ZM510.653-464H204.771q-6.092 0-10.355-4.212-4.262-4.213-4.262-10.231 0-5.634 4.262-10.057 4.263-4.423 10.355-4.423h305.882l-59.358-59.359q-5.488-5.103-5.872-11.367-.385-6.263 6-11.057 6-4.794 10.538-4.16 4.539.635 9.687 5.399l76.281 76.28q8.225 7.862 8.225 18.635 0 10.772-8.192 18.783l-76.388 76.387q-4.805 4.421-9.613 4.69-4.807.269-10.017-4.731-5.906-4.731-6.348-9.904-.443-5.173 5.493-11.493L510.653-464Z"/></svg>