<svg xmlns="http://www.w3.org/2000/svg" height="24" viewBox="0 -960 960 960" width="24"><path d="M206.309-108.001q-41.308 0-69.808-28.5-28.5-28.5-28.5-69.808v-547.382q0-41.308 28.5-69.808 28.5-28.5 69.808-28.5h231.076q17.769 0 30.384 12.616 12.616 12.615 12.616 30.384t-12.616 30.384Q455.154-766 437.385-766H206.309q-4.616 0-8.463 3.846-3.846 3.847-3.846 8.463v547.382q0 4.616 3.846 8.463 3.847 3.846 8.463 3.846h231.076q17.769 0 30.384 12.615 12.616 12.615 12.616 30.384t-12.616 30.384q-12.615 12.616-30.384 12.616H206.309Zm477.385-330H400.846q-17.769 0-30.384-12.615-12.616-12.615-12.616-30.384t12.616-30.384q12.615-12.615 30.384-12.615h282.848l-73.924-73.923q-13.307-13.308-13.499-31.269-.193-17.961 13.499-31.269 13.693-13.307 31.077-13.115 17.384.192 30.692 13.5l145.767 145.768q14.846 14.846 14.846 34.307 0 19.461-14.846 34.307L672.539-300.925q-12.923 12.923-31.192 13.308-18.269.384-31.577-13.923-13.692-13.308-13.884-30.884-.192-17.577 13.5-31.269l74.308-74.308Z"/></svg>