<svg xmlns="http://www.w3.org/2000/svg" height="20" viewBox="0 -960 960 960" width="20"><path d="M243.692-187.077q-22.637 0-38.088-15.45-15.45-15.451-15.45-38.088v-475.693q0-22.637 15.45-38.088 15.451-15.45 38.088-15.45h223.423q5.723 0 9.997 4.212 4.273 4.213 4.273 9.846 0 6.019-4.273 10.442-4.274 4.423-9.997 4.423H243.692q-9.231 0-16.923 7.692-7.692 7.692-7.692 16.923v475.693q0 9.23 7.692 16.923Q234.461-216 243.692-216h223.423q5.723 0 9.997 4.213 4.273 4.212 4.273 9.846 0 6.018-4.273 10.441-4.274 4.423-9.997 4.423H243.692ZM713.269-464H408.156q-6.092 0-10.355-4.212-4.263-4.213-4.263-10.231 0-5.634 4.263-10.057t10.355-4.423h305.113l-59.359-59.359q-5.487-5.103-5.872-11.367-.384-6.263 6-11.057 6-4.794 10.539-4.16 4.538.635 9.687 5.399l76.28 76.28q8.225 7.862 8.225 18.635 0 10.772-8.192 18.783l-76.387 76.387q-4.805 4.421-9.613 4.69-4.808.269-10.017-4.731-5.906-4.731-6.349-9.904-.442-5.173 5.493-11.493L713.269-464Z"/></svg>