<svg xmlns="http://www.w3.org/2000/svg" height="20" viewBox="0 -960 960 960" width="20"><path d="M548.615-649.611v-95.009q0-11.672 7.248-18.757 7.248-7.085 18.447-7.085h170.371q11.736 0 18.759 7.085 7.022 7.085 7.022 18.757v95.009q0 12.097-7.248 19.47-7.248 7.372-18.447 7.372H574.396q-11.736 0-18.759-7.372-7.022-7.373-7.022-19.47ZM189.538-499.617v-245.706q0-10.969 7.577-18.054 7.576-7.085 19.261-7.085h169.64q10.324 0 17.847 7.093 7.522 7.093 7.522 18.063V-499.6q0 10.094-7.686 17.617-7.685 7.522-18.009 7.522H216.049q-11.684 0-19.098-7.531-7.413-7.53-7.413-17.625Zm359.077 283.923V-459.4q0-11.394 7.248-18.767 7.248-7.372 18.447-7.372h170.371q11.736 0 18.759 7.381 7.022 7.38 7.022 18.775v243.706q0 11.395-7.248 18.767t-18.447 7.372H574.396q-11.736 0-18.759-7.381-7.022-7.38-7.022-18.775Zm-359.077-.686v-96.009q0-11.673 7.577-18.757 7.576-7.085 19.261-7.085h169.64q10.324 0 17.847 7.085 7.522 7.084 7.522 18.757v96.009q0 12.098-7.686 19.47-7.685 7.372-18.009 7.372H216.049q-11.684 0-19.098-7.372-7.413-7.372-7.413-19.47Zm28.924-287.005h163.999v-238.153H218.462v238.153Zm359.077 284.923h163.999v-238.153H577.539v238.153Zm0-432.231h163.999v-90.845H577.539v90.845ZM218.462-218.462h163.999v-90.845H218.462v90.845Zm163.999-284.923Zm195.078-147.308Zm0 194.078ZM382.461-309.307Z"/></svg>