<svg xmlns="http://www.w3.org/2000/svg" height="24" viewBox="0 -960 960 960" width="24"><path d="M407.232-68.001q-18.462 0-31.808-12.039-13.346-12.038-16.346-30.5l-11.615-86.307q-10.077-4.385-23.462-11.577-13.385-7.193-22.693-15.27l-81.538 34.231q-17.846 7.615-35 .807-17.154-6.807-26.385-22.653L86.233-340.077q-8.847-15.846-5.731-33.807 3.115-17.962 17.961-29.192l67.308-51.693q-.385-6.923-.962-13.923t-.577-13.923q0-5.539.577-12.347t.962-14.269l-66.308-49.693q-14.846-11.23-18.653-29.192-3.808-17.961 5.422-33.807l72.153-125.998q9.231-15.846 26.193-22.654 16.961-6.808 34.807.808l77.538 31.846q11.462-8.462 25.385-15.962 13.924-7.501 25.77-13.27l11-84.307q2-18.462 16.346-30.5 14.346-12.039 32.808-12.039h143.152q18.461 0 32.999 12.039 14.539 12.038 16.539 30.5l10.615 85.692q13 6.538 25.578 13.269 12.577 6.731 24.423 15.578l79.077-32.846q17.846-7.616 34.807-1 16.962 6.615 26.193 22.461l72.152 126.383q9.231 15.846 5.423 33.807-3.807 17.962-18.653 29.192l-69.846 52.846q1.154 6.693 1.346 13.616.192 6.923.192 12.462 0 5.154-.384 12.077-.385 6.923-.77 14.77l67.077 50.077q14.846 11.23 18.654 29.192 3.808 17.961-5.423 33.807L799.23-210.925q-9.231 15.846-26.192 22.269-16.962 6.423-34.808-1.192l-81.692-34.231q-10.846 7.847-21.808 14.462-10.962 6.616-22.193 11.385l-11.615 87.692q-2 18.462-16.039 30.5Q570.845-68 552.384-68H407.232Zm70.229-266q61.923 0 104.961-43.038Q625.46-420.078 625.46-482t-43.038-104.961q-43.038-43.038-104.961-43.038-61.537 0-104.768 43.038-43.23 43.039-43.23 104.961t43.23 104.961q43.231 43.038 104.768 43.038Z"/></svg>