<svg xmlns="http://www.w3.org/2000/svg" height="20" viewBox="0 -960 960 960" width="20"><path d="M266.043-227.692q-15.774 0-27.062-11.387-11.289-11.387-11.289-27.378 0-15.582 11.387-26.87 11.387-11.289 27.378-11.289 15.582 0 26.87 11.4 11.289 11.399 11.289 27.173t-11.4 27.062q-11.399 11.289-27.173 11.289Zm0-214.039q-15.774 0-27.062-11.302-11.289-11.302-11.289-27.173 0-15.871 11.387-27.16 11.387-11.288 27.378-11.288 15.582 0 26.87 11.382 11.289 11.382 11.289 27.366 0 15.983-11.4 27.079-11.399 11.096-27.173 11.096Zm0-213.653q-15.774 0-27.062-11.387-11.289-11.388-11.289-27.378 0-15.582 11.387-26.87 11.387-11.289 27.378-11.289 15.582 0 26.87 11.399 11.289 11.399 11.289 27.174 0 15.774-11.4 27.062-11.399 11.289-27.173 11.289Zm213.863 0q-15.983 0-27.079-11.387-11.096-11.388-11.096-27.378 0-15.582 11.302-26.87 11.302-11.289 27.173-11.289 15.871 0 27.16 11.399 11.288 11.399 11.288 27.174 0 15.774-11.382 27.062-11.382 11.289-27.366 11.289Zm213.829 0q-15.774 0-27.062-11.387-11.289-11.388-11.289-27.378 0-15.582 11.387-26.87 11.388-11.289 27.378-11.289 15.582 0 26.87 11.399 11.289 11.399 11.289 27.174 0 15.774-11.399 27.062-11.399 11.289-27.174 11.289ZM479.906-441.731q-15.983 0-27.079-11.302t-11.096-27.173q0-15.871 11.302-27.16 11.302-11.288 27.173-11.288 15.871 0 27.16 11.382 11.288 11.382 11.288 27.366 0 15.983-11.382 27.079t-27.366 11.096Zm54.248 187.077v-39.355q0-5.143 2.173-9.563 2.173-4.419 5.904-8.62l193.615-192.616q3.681-3.835 7.826-5.206 4.144-1.371 7.792-1.371 3.98 0 8.153 1.52 4.174 1.519 7.652 4.173l44 45.884q2.892 3.985 4.735 7.916 1.842 3.93 1.842 7.882 0 3.952-1.638 7.775-1.638 3.823-4.939 7.351L618.654-235.769q-4.202 3.731-8.554 5.904t-9.629 2.173h-39.356q-11.3 0-19.13-7.831-7.831-7.831-7.831-19.131Zm262.038-189.308-45-45.769 45 45.769Zm-240 194.231h44.817l134.106-133.153-22.682-23-21.139-23.539-135.102 134.692v45Zm156.154-156.153-21.231-23.539 44 46.539-22.769-23Z"/></svg>