<svg xmlns="http://www.w3.org/2000/svg" height="20" viewBox="0 -960 960 960" width="20"><path d="M483.553-275.077q11.572 0 19.702-7.99 8.13-7.99 8.13-19.562 0-11.573-7.991-19.703-7.99-8.13-19.562-8.13-11.572 0-19.702 7.991-8.13 7.99-8.13 19.562 0 11.572 7.99 19.702 7.99 8.13 19.563 8.13Zm-3.094 132.923q-69.673 0-131.343-26.386-61.67-26.386-108.008-72.69-46.338-46.305-72.646-107.746-26.308-61.441-26.308-131.299 0-69.939 26.386-131.109 26.386-61.17 72.69-107.508 46.305-46.338 107.746-72.646 61.441-26.308 131.299-26.308 69.939 0 131.109 26.386 61.17 26.386 107.508 72.69 46.338 46.305 72.646 107.512t26.308 130.799q0 69.673-26.386 131.343-26.386 61.67-72.69 108.008-46.305 46.338-107.512 72.646t-130.799 26.308Zm-.484-28.923q128.294 0 218.621-90.301 90.327-90.302 90.327-218.597 0-128.294-90.301-218.621-90.302-90.327-218.597-90.327-128.294 0-218.621 90.301-90.327 90.302-90.327 218.597 0 128.294 90.301 218.621 90.302 90.327 218.597 90.327ZM480-480Zm1.512-168.615q31.005 0 53.439 19.062t22.434 47.771q0 21.995-11.481 39.542-11.481 17.548-27.212 31.212-20.559 18.863-37.318 41.584-16.759 22.722-17.566 50.77-.77 7.405 4.101 11.309 4.87 3.904 11.364 3.904 6.958 0 11.689-3.533 4.73-3.533 6.115-9.314 4.938-20.991 16.796-36.878 11.858-15.886 26.165-30.263 20.616-20.397 34.174-45.288 13.557-24.891 13.557-53.109 0-43.266-30.117-72.402-30.117-29.137-73.578-29.137-32.096 0-59.027 15.866-26.932 15.865-46.938 42.016-5.148 5.849-2.623 12.813 2.524 6.963 10.386 9.5 7.282 3.19 14.051-.098 6.769-3.289 11.308-7.135 13.273-15.297 30.761-26.744 17.487-11.448 39.52-11.448Z"/></svg>