<svg xmlns="http://www.w3.org/2000/svg" height="24" viewBox="0 -960 960 960" width="24"><path d="M438.001-93v-38.616q0-17.769 12.615-30.385 12.615-12.615 30.384-12.615t30.384 12.615q12.615 12.616 12.615 30.385V-93q0 17.769-12.615 30.384Q498.769-50 481-50t-30.384-12.615Q438.001-75.23 438.001-93ZM113-503.999h36.616q17.769 0 30.385 12.615 12.615 12.615 12.615 30.384t-12.615 30.384q-12.616 12.615-30.385 12.615H113q-17.769 0-30.384-12.615Q70-443.231 70-461t12.615-30.384Q95.23-503.999 113-503.999Zm697.384 0H847q17.769 0 30.384 12.615 12.615 12.615 12.615 30.384t-12.615 30.384Q864.769-418.001 847-418.001h-36.616q-17.769 0-30.385-12.615-12.615-12.615-12.615-30.384t12.615-30.384q12.616-12.615 30.385-12.615ZM694.693-165.154l-26.001-26.001q-12.307-12.308-12.5-29.884-.192-17.577 12.5-30.269Q681.384-264 698.769-264q17.384 0 30.076 12.692l26.001 26.001q12.307 12.307 12.5 29.884.192 17.577-12.5 30.269-12.692 12.692-30.077 12.692-17.384 0-30.076-12.692Zm-489.539-60.153 26.001-26.001q12.308-12.307 29.884-12.5 17.577-.192 30.269 12.5Q304-238.616 304-221.231q0 17.384-12.692 30.076l-26.001 26.001q-12.307 12.307-29.884 12.5-17.577.192-30.269-12.5-12.692-12.692-12.692-30.077 0-17.384 12.692-30.076ZM480-252.001q-86.922 0-147.461-60.538Q272.001-373.078 272.001-460q0-48.692 22-92.192 22-43.5 60-75.038v-122.154q0-37.307 24.731-62.037 24.73-24.73 62.037-24.73h78.462q37.307 0 62.037 24.73 24.731 24.73 24.731 62.037v122.154q38 31.538 60 75.038t22 92.192q0 86.922-60.538 147.461Q566.922-252.001 480-252.001Zm-40-413.228q10-2.385 19.808-3.577 9.807-1.193 20.192-1.193t20.192 1.193Q510-667.614 520-665.229v-84.924h-80v84.924ZM480-337q51 0 87-36t36-87q0-51-36-87t-87-36q-51 0-87 36t-36 87q0 51 36 87t87 36Zm0 0q-51 0-87-36t-36-87q0-51 36-87t87-36q51 0 87 36t36 87q0 51-36 87t-87 36Z"/></svg>