<svg xmlns="http://www.w3.org/2000/svg" height="20" viewBox="0 -960 960 960" width="20"><path d="M737.538-248.769v-63.539q0-8.061-5.661-13.723-5.662-5.661-13.723-5.661-8.062 0-13.723 5.642-5.662 5.642-5.662 13.678v68.475q0 5.643 2.173 10.988 2.173 5.346 5.896 9.27l52.433 52.21q5.892 5.506 13.756 5.891 7.865.384 14.073-5.847 5.438-5.461 5.438-13.741t-5.461-14.105l-49.539-49.538Zm-494.461 58.615q-22.277 0-37.908-15.63-15.631-15.631-15.631-37.908v-473.231q0-22.277 15.631-37.908t37.908-15.631h473.846q22.277 0 37.908 15.631t15.631 37.908v226.885q-7.512.238-14.71.559-7.198.322-14.214-.829v-226.615q0-9.231-7.692-16.923-7.692-7.692-16.923-7.692H243.077q-9.231 0-16.923 7.692-7.692 7.692-7.692 16.923v473.231q0 9.231 7.692 16.923 7.692 7.692 16.923 7.692h229.262q.382 7.632.066 14.359t.48 14.564H243.077Zm-24.615-54.769v25.846-522.461V-490.308v-2 247.385Zm92.615-90.864q0 6.018 4.273 10.441 4.273 4.423 10.381 4.423H480.72q3.318-7.115 6.259-14.216 2.94-7.101 6.713-14.707H325.731q-6.108 0-10.381 4.241-4.273 4.242-4.273 9.818Zm0-144.924q0 6.019 4.273 10.442t10.381 4.423h271.538q11.846-1.885 19.058-4.769 7.212-2.885 15.673-7.347.392-7.961-4.464-12.384-4.856-4.423-9.858-4.423H325.731q-6.108 0-10.381 4.241-4.273 4.242-4.273 9.817Zm0-144.923q0 6.019 4.273 10.442t10.381 4.423h308.923q5.665 0 9.967-4.213 4.302-4.212 4.302-10.038 0-5.826-4.302-10.249-4.302-4.424-9.967-4.424H325.731q-6.108 0-10.381 4.242-4.273 4.241-4.273 9.817ZM717.969-92.615q-61.815 0-104.662-43.031-42.846-43.031-42.846-104.847 0-61.815 43.031-104.661Q656.523-388 718.339-388q61.815 0 104.661 43.031 42.846 43.031 42.846 104.846 0 61.815-43.031 104.662-43.031 42.846-104.846 42.846Z"/></svg>